<?xml version="1.0" encoding="UTF-8"?>
<svg id="Layer_1" xmlns="http://www.w3.org/2000/svg" width="3024.11" height="748.73" version="1.1" viewBox="0 0 3024.11 748.73">
  <!-- Generator: Adobe Illustrator 29.8.1, SVG Export Plug-In . SVG Version: 2.1.1 Build 2)  -->
  <g>
    <path d="M974.34,450.57l-24.56,76.31h-67.54l108.32-312.25h86.83l108.32,312.25h-67.54l-24.12-76.31h-119.72.01ZM1069.95,374.7c-12.72-40.35-25-81.57-35.52-121.92h-.88c-10.53,40.35-22.37,81.57-35.08,121.92l-6.58,20.61h84.64l-6.58-20.61Z"/>
    <path d="M1350.18,459.34h62.71c-8.77,40.79-47.36,74.55-106.57,74.55-70.17,0-110.95-49.12-110.95-120.16,0-65.78,40.79-116.66,110.51-116.66,51.31,0,89.03,28.94,103.06,74.12,4.82,15.35,7.02,32.45,7.02,57.01h-160.07c1.75,46.05,24.12,62.28,50.43,62.28,24.56,0,40.79-13.16,43.86-31.14h0ZM1257.21,389.61h97.36c-3.95-33.77-24.12-49.12-48.68-49.12s-43.85,15.35-48.68,49.12h0Z"/>
    <path d="M1595.33,303.22v53.06c-7.02-1.32-13.16-2.19-19.3-2.19-37.72,0-57.89,23.68-57.89,67.54v105.25h-61.4v-222.78h56.57v31.58h.88c14.91-24.12,34.65-35.08,60.96-35.08,6.14,0,14.03.88,20.17,2.63h.01Z"/>
    <path d="M1832.58,415.49c0,72.36-44.29,118.41-114.02,118.41s-114.02-46.05-114.02-118.41,44.29-118.41,114.02-118.41,114.02,46.05,114.02,118.41h0ZM1669,415.49c0,43.42,19.3,71.05,49.56,71.05s49.56-27.63,49.56-71.05-19.3-71.05-49.56-71.05-49.56,27.63-49.56,71.05Z"/>
    <path d="M1945.29,291.38v12.72h42.1v45.61h-42.1v177.18h-60.52v-177.18h-36.84v-45.61h36.84v-20.17c0-48.68,25.88-72.8,73.68-72.8,10.53,0,22.81,1.75,30.26,3.51v43.42c-2.63-.88-7.02-1.32-10.96-1.32-21.49,0-32.45,9.21-32.45,34.65h-.01Z"/>
    <path d="M2157.1,303.22v53.06c-7.02-1.32-13.16-2.19-19.3-2.19-37.72,0-57.89,23.68-57.89,67.54v105.25h-61.4v-222.78h56.57v31.58h.88c14.91-24.12,34.65-35.08,60.96-35.08,6.14,0,14.03.88,20.17,2.63h.01Z"/>
    <path d="M2361.03,385.23v80.69c0,28.07,2.19,46.05,6.14,60.96h-55.26c-2.19-9.21-3.07-18.86-3.07-29.82h-.88c-16.67,23.68-41.66,35.08-72.36,35.08-47.36,0-75.87-28.94-75.87-67.54,0-36.4,21.93-60.96,86.39-71.05,16.67-2.63,41.66-5.26,55.7-6.14v-7.89c0-28.07-14.91-39.47-36.4-39.47-22.8,0-35.96,12.72-36.84,33.77h-59.64c2.19-42.54,32.89-76.75,96.48-76.75s95.6,29.82,95.6,88.15h.01ZM2301.83,424.7c-13.16.88-31.58,2.63-44.73,4.82-25.44,4.38-35.96,12.72-35.96,30.7,0,16.67,11.4,28.07,32.89,28.07,12.72,0,26.31-3.95,35.08-12.72,10.53-10.53,12.72-22.37,12.72-42.54v-8.33h0Z"/>
    <path d="M2749.59,390.05v136.83h-61.4v-130.69c0-33.77-13.59-49.12-35.08-49.12-26.31,0-40.79,23.24-40.79,65.34v114.46h-61.4v-134.64c0-28.51-12.28-45.17-35.08-45.17-26.75,0-40.79,23.68-40.79,65.34v114.46h-61.4v-222.78h57.89v25.44h.88c16.23-21.05,35.08-30.7,61.84-30.7,31.14,0,53.94,13.16,66.22,38.15,16.67-23.68,36.84-38.15,71.04-38.15,47.8,0,78.06,30.7,78.06,91.22h.01Z"/>
    <path d="M2942.98,459.34h62.71c-8.77,40.79-47.36,74.55-106.57,74.55-70.17,0-110.95-49.12-110.95-120.16,0-65.78,40.79-116.66,110.51-116.66,51.31,0,89.03,28.94,103.06,74.12,4.82,15.35,7.02,32.45,7.02,57.01h-160.07c1.75,46.05,24.12,62.28,50.43,62.28,24.56,0,40.79-13.16,43.85-31.14h.01ZM2850.01,389.61h97.36c-3.95-33.77-24.12-49.12-48.68-49.12s-43.85,15.35-48.68,49.12h0Z"/>
  </g>
  <g>
    <circle cx="374.37" cy="374.37" r="374.37"/>
    <g>
      <path d="M655.11,364.55c0-20.33-4.82-40.65-12.77-59.56-7.75-17.77-19.1-34.04-32.62-47.93-1.42-13.14-4.82-26.09-9.83-38.57-7.75-18.25-19.1-35.26-33.66-49.35-14.37-14.37-31.96-25.34-50.97-33.09-18.25-7.28-37.92-10.78-57.5-11.06-10.02-8.04-21.37-14.75-33.38-19.85-18.35-7.56-38.49-11.72-58.82-11.53-20.33-.19-40.66,4.54-59.67,12.39-18.44,7.85-35.18,19.48-49.46,33.47-12.2,1.51-24.49,3.97-36.5,8.7-18.44,7.56-35.65,18.81-49.93,33.28-14.56,14.28-25.72,31.96-33.66,50.86-7.57,18.62-11.44,38.76-11.63,58.99-8.51,10.59-15.41,22.69-20.61,35.45-7.38,18.91-11.16,39.61-10.4,60.32.38,20.8,5.77,41.41,14.37,60.51,7.66,16.36,18.25,31.29,30.92,44.25,1.42,13.61,5.01,27.04,10.4,39.9,7.94,18.25,19.48,35.17,34.23,49.07,14.56,14.18,32.34,25.05,51.35,32.62,17.87,6.9,37.07,10.21,56.17,10.4,10.78,8.7,23.07,15.79,36.22,21.08,18.35,7.09,38.39,10.78,58.54,10.21,20.14-.28,40.28-5.2,58.91-13.24,17.4-7.75,33.29-18.91,47-32.24,13.52-1.42,27.05-5.01,39.91-10.4,18.16-7.85,34.99-19.38,48.89-34.04,14.18-14.46,24.96-32.14,32.62-51.05,6.9-17.87,10.31-37.06,10.59-56.16,8.32-10.31,15.13-21.93,20.33-34.41,7.38-18.53,11.35-38.67,10.97-58.99v-.03Z" fill="#fff" isolation="isolate" opacity=".25"/>
      <path d="M655.11,364.65c-.05-20.34-4.82-40.65-12.8-59.57-7.76-17.8-19.05-34-32.6-47.94-1.41-13.1-4.79-26.14-9.86-38.59-7.72-18.26-19.12-35.27-33.68-49.34-14.34-14.34-31.99-25.33-50.92-33.11-18.23-7.23-37.88-10.78-57.51-11.06-10.03-8.04-21.32-14.75-33.38-19.9-18.35-7.61-38.46-11.74-58.76-11.54-20.34-.18-40.67,4.51-59.63,12.34-18.39,7.86-35.14,19.47-49.45,33.46-12.21,1.47-24.45,3.98-36.52,8.71-18.45,7.54-35.67,18.77-49.94,33.27-14.58,14.28-25.73,31.94-33.7,50.86-7.56,18.62-11.42,38.76-11.64,58.96-8.47,10.61-15.4,22.65-20.62,35.5-7.42,18.91-11.16,39.58-10.4,60.31.42,20.78,5.72,41.44,14.37,60.55,7.64,16.37,18.27,31.31,30.93,44.23,1.44,13.57,5.02,27.08,10.43,39.93,7.91,18.21,19.51,35.14,34.24,49.08,14.51,14.21,32.31,25.04,51.37,32.62,17.86,6.85,37.02,10.18,56.16,10.39,10.77,8.72,23.08,15.8,36.23,21.08,18.37,7.13,38.39,10.8,58.51,10.19,20.16-.26,40.23-5.17,58.92-13.22,17.43-7.75,33.3-18.91,46.96-32.24,13.55-1.44,27.04-5.02,39.87-10.42,18.13-7.88,34.98-19.4,48.88-34.04,14.17-14.42,24.99-32.1,32.59-51.04,6.92-17.85,10.3-37.02,10.57-56.17,8.3-10.29,15.16-21.95,20.37-34.4,7.46-18.43,11.41-38.6,11.02-58.91h-.01ZM636.54,421.13c-3.23,10.22-7.61,20.06-12.95,29.36-.93-19.26-5.15-38.43-12.8-56.11-8.4-18.6-19.93-35.84-34.7-49.66-3.81-3.32-7.47-6.78-11.4-9.91-4.09-2.93-8-6.08-12.26-8.7-4.37-2.46-8.6-5.1-13.04-7.33-4.56-2.02-8.97-4.28-13.59-6.03-18.54-6.87-38.2-10.19-57.33-8.74h-.11c-.36.04-.66.32-.69.7-.03.41.28.77.69.8,37.48,2.74,73.53,20.02,99.14,47.36,12.85,13.6,23.16,29.58,30.2,46.89,7.06,17.3,10.8,35.92,11.07,54.57.44,18.65-2.55,37.39-8.89,54.96-6.31,17.58-15.94,33.97-28.2,48.09-19.53,22.69-46.02,39.26-74.95,47.14,13.02-14.33,23.64-30.93,30.74-48.92,7.18-19.04,11.21-39.32,10.54-59.47-.35-5.03-.47-10.05-1.04-15.01-.81-4.95-1.33-9.92-2.5-14.77-1.35-4.82-2.45-9.66-4.02-14.36-1.79-4.64-3.29-9.35-5.31-13.84-8.2-17.92-19.7-34.13-34.18-46.63l-.08-.07c-.28-.24-.69-.25-.98,0-.31.27-.35.74-.08,1.05,24.42,28.41,37.58,66,36.35,103.33-.54,18.64-4.54,37.17-11.77,54.34-7.21,17.18-17.68,32.95-30.62,46.31-12.82,13.48-28.11,24.62-44.94,32.6-16.82,7.99-35.14,12.83-53.74,14.22-30.07,2.37-60.8-4.61-87.01-19.6,19.68-.94,39.26-5.3,57.27-13.23,18.64-8.56,35.89-20.26,49.65-35.21,3.3-3.86,6.79-7.52,9.86-11.53,2.91-4.13,6.08-8.06,8.63-12.39,2.43-4.42,5.09-8.66,7.25-13.17,1.98-4.6,4.25-9.03,5.93-13.71,6.73-18.69,9.85-38.48,8.19-57.67v-.11c-.04-.36-.33-.66-.71-.68-.41-.03-.77.29-.79.7-2.31,37.68-19.32,74.09-46.59,100.04-13.56,13.02-29.55,23.49-46.9,30.67-17.34,7.21-36.04,11.07-54.78,11.43-18.74.53-37.59-2.4-55.27-8.71-17.69-6.29-34.18-15.93-48.39-28.23-22.78-19.56-39.42-46.12-47.31-75.12.42.39.82.81,1.24,1.2,15.73,13.98,34.14,25.05,53.99,31.98,19.91,6.62,41,9.82,61.72,8.1,10.34-.78,20.6-2.41,30.48-5.27,9.89-2.86,19.43-6.66,28.47-11.29,17.94-9.56,33.83-22.52,45.67-38.27l.06-.08c.22-.29.2-.71-.07-.97-.29-.29-.76-.3-1.06,0-13.74,13.55-30,24.51-47.74,32.02-17.73,7.53-36.89,11.62-56.12,12.03-19.23.43-38.52-2.82-56.51-9.54-18-6.71-34.65-16.92-48.83-29.84-14.31-12.77-26.16-28.3-34.69-45.51-8.54-17.2-13.74-36.05-15.27-55.22-2.55-30.24,4.39-61.18,19.43-87.59.9,18.65,4.94,37.18,12.17,54.36,8.26,18.83,19.69,36.34,34.47,50.38,3.81,3.38,7.57,6.78,11.41,10.07,4.09,2.99,8.09,6.08,12.29,8.85,4.39,2.51,8.69,5.11,13.09,7.47,4.58,2.07,9.05,4.29,13.66,6.16,18.64,7.03,38.44,10.46,57.72,9.06h.11c.36-.03.66-.32.69-.7.03-.41-.28-.77-.69-.8-37.76-2.84-74.02-20.45-99.62-48.2-25.77-27.57-40.62-64.99-40.49-102.66-.51-37.62,13.76-75.25,39.09-103.19,12.6-14.02,27.87-25.65,44.73-34.11,8.76-4.39,18.04-7.51,27.52-10.04-12.36,13.77-22.49,29.6-29.42,46.73-7.42,19.14-11.63,39.56-11.08,59.89.31,5.07.54,10.13.97,15.15.79,5,1.4,10,2.45,14.91,1.33,4.86,2.51,9.73,3.98,14.5,1.78,4.69,3.35,9.41,5.31,13.97,8.21,18.1,19.77,34.47,34.36,47.08l.08.07c.28.24.69.25.98,0,.31-.27.35-.74.08-1.05-24.64-28.63-37.82-66.62-36.36-104.25,1.16-37.64,17.04-74.54,43.64-101.1,26.1-27,62.56-43.77,100.21-45.68,18.78-1.03,37.76,1.44,55.66,7.29,9.8,3.18,19.23,7.42,28.17,12.52-18.86.94-37.61,5.03-54.96,12.42-18.72,8.31-36.08,19.79-50.01,34.54-3.35,3.8-6.78,7.51-9.99,11.38-2.96,4.08-6.08,8.03-8.78,12.26-2.49,4.37-5.11,8.63-7.41,13.05-2.05,4.56-4.29,9-6.1,13.6-6.97,18.56-10.35,38.27-8.96,57.45v.11c.03.36.32.66.7.69.41.03.77-.28.8-.69,2.83-37.57,20.31-73.67,47.86-99.23,13.71-12.82,29.79-23.08,47.2-30.04,17.4-6.98,36.11-10.61,54.83-10.75,18.72-.3,37.5,2.84,55.07,9.34,17.58,6.47,33.95,16.27,48.01,28.69,14.07,12.41,25.84,27.45,34.48,44.14,4.9,9.48,8.74,19.49,11.54,29.79-14.28-12.96-30.8-23.52-48.71-30.61-19.22-7.27-39.7-11.31-60.05-10.59-5.07.36-10.14.54-15.16,1.09-4.99.83-10.01,1.41-14.91,2.58-4.86,1.38-9.74,2.53-14.48,4.11-4.68,1.83-9.41,3.38-13.94,5.43-18.05,8.37-34.34,20.09-46.84,34.8l-.07.08c-.24.28-.24.69,0,.98.27.31.74.34,1.05.07,28.45-24.91,66.37-38.45,104.06-37.3,18.83.49,37.55,4.51,54.88,11.82,17.34,7.29,33.25,17.9,46.68,31.02,13.55,13,24.71,28.5,32.63,45.55,7.94,17.04,12.65,35.58,13.84,54.36,1.21,18.78-1.08,37.81-6.78,55.78h-.02Z" fill="#fff"/>
    </g>
  </g>
</svg>